<svg width="50" height="50" viewBox="0 0 50 50" fill="none" xmlns="http://www.w3.org/2000/svg">
<path d="M14.1899 33.3631C13.3972 33.3631 12.6838 32.8082 12.5252 32.0155L8.64097 13.9418C8.40316 12.9905 9.03733 12.1185 9.98857 11.8807C10.9398 11.6429 11.8118 12.2771 12.0496 13.2283L15.9339 31.302C16.0924 32.2533 15.5375 33.1253 14.5863 33.3631C14.4277 33.3631 14.3485 33.3631 14.1899 33.3631Z" fill="#B4B4B4"/>
<path d="M27.5863 33.363C27.4277 33.363 27.3484 33.363 27.1899 33.363C26.2387 33.1252 25.6838 32.2532 25.8423 31.302L29.7266 13.2282C29.9644 12.277 30.8364 11.7221 31.7876 11.8806C32.7389 12.1184 33.2938 12.9904 33.1352 13.9417L29.2509 32.0154C29.0924 32.8081 28.379 33.363 27.5863 33.363Z" fill="#B4B4B4"/>
<path d="M21.0063 33.046C20.0551 33.046 19.4209 32.2533 19.4209 31.3021V13.2283C19.4209 12.2771 20.0551 12.2771 21.0063 12.2771C21.9576 12.2771 22.5917 12.2771 22.5917 13.2283V31.3021C22.5917 32.2533 21.9576 33.046 21.0063 33.046Z" fill="#B4B4B4"/>
<path d="M41.6964 13.7039C41.8549 13.149 41.7757 12.7527 41.4586 12.2771C41.1415 11.8807 40.5866 11.7222 40.0317 11.7222H1.74396C1.18906 11.7222 0.713436 11.8807 0.317083 12.2771C0 12.7527 -0.0792707 13.2283 0.0792707 13.7832L5.9453 32.6496C6.18312 33.3631 6.81728 33.918 7.60999 33.918H34.1657C34.9584 33.918 35.5925 33.3631 35.8304 32.6496L37.5743 27.1007C37.7329 26.8629 37.7329 26.6251 37.8121 26.3872L41.6964 13.7039ZM6.10384 21.2347H35.6718L34.7206 24.4055H7.05509L6.10384 21.2347ZM37.7329 14.893L36.7816 18.0638H4.99405L4.04281 14.893H37.7329ZM8.87832 30.7471L8.16488 27.5763H33.6901L32.8973 30.7471H8.87832Z" fill="#777777"/>
<path d="M40.0317 12.5149H1.74396C1.18906 12.5149 0.713436 12.6734 0.317083 13.0698C0.158541 13.2283 0.0792707 13.3869 0 13.6247C0 13.704 0 13.704 0 13.704L5.9453 32.6497C6.18312 33.3631 6.81728 33.918 7.60999 33.918H34.1657C34.9584 33.918 35.5925 33.3631 35.8304 32.6497L37.5743 27.1007C37.7329 26.8629 37.7329 26.6251 37.8121 26.3873L41.7757 13.704C41.7757 13.704 41.7757 13.6247 41.7757 13.5454C41.6964 13.3076 41.6171 13.2283 41.4586 13.0698C41.1415 12.6734 40.5866 12.5149 40.0317 12.5149ZM33.6901 28.369L32.8973 31.5399H8.87832L8.16488 28.369H8.32342L8.16488 27.5763H33.6901L33.5315 28.369H33.6901ZM35.6718 22.0274L34.7206 25.1982H7.05509L6.10384 22.0274H6.34166L6.10384 21.2347H35.6718L35.434 22.0274H35.6718ZM37.7329 15.6857L36.7816 18.8565H4.99405L4.04281 15.6857H4.28062L4.04281 14.893H37.7329L37.495 15.6857H37.7329Z" fill="black"/>
<path d="M35.1172 40.2597H6.65899C5.70775 40.2597 4.91504 39.2292 4.91504 38.2779C4.91504 37.3267 5.70775 36.2961 6.65899 36.2961H35.1172C36.0684 36.2961 36.8611 37.3267 36.8611 38.2779C36.8611 39.2292 36.0684 40.2597 35.1172 40.2597Z" fill="black"/>
<path d="M9.08594 40.2597H20.3424C20.3424 38.6743 18.757 37.0889 16.9337 36.2961H10.8299C9.79937 37.0889 9.08594 38.6743 9.08594 40.2597Z" fill="#777777"/>
<path d="M16.7263 40.0217C16.7263 42.3998 14.8238 44.6194 12.4457 44.6194C10.0675 44.6194 8.16504 42.3998 8.16504 40.0217C8.16504 37.6436 10.0675 35.7411 12.4457 35.7411C14.8238 35.6618 16.7263 37.6436 16.7263 40.0217Z" fill="#777777"/>
<path d="M16.7263 40.0217C16.7263 42.3998 14.8238 44.3023 12.4457 44.3023C10.0675 44.3023 8.16504 42.3998 8.16504 40.0217C8.16504 37.6436 10.0675 35.3447 12.4457 35.3447C14.8238 35.3447 16.7263 37.6436 16.7263 40.0217Z" fill="black"/>
<path d="M12.4457 44.3024C14.8098 44.3024 16.7263 42.3859 16.7263 40.0218C16.7263 37.6577 14.8098 35.7412 12.4457 35.7412C10.0815 35.7412 8.16504 37.6577 8.16504 40.0218C8.16504 42.3859 10.0815 44.3024 12.4457 44.3024Z" fill="black"/>
<path d="M9.35352 36.9302C11.0182 35.2655 13.7927 35.2655 15.4574 36.9302C17.122 38.5948 17.122 41.3693 15.4574 43.034" fill="black"/>
<path d="M12.4458 42.5584C11.019 42.5584 9.90918 41.4487 9.90918 40.0218C9.90918 38.5949 11.019 37.4851 12.4458 37.4851C13.8727 37.4851 14.9825 38.5949 14.9825 40.0218C14.9825 41.4487 13.7934 42.5584 12.4458 42.5584Z" fill="black"/>
<path d="M14.1894 38.1985C15.2199 39.229 15.2199 40.8144 14.1894 41.8449C13.1589 42.8755 11.5735 42.8755 10.543 41.8449" fill="#B4B4B4"/>
<path d="M25.0195 40.2597H36.276C36.276 38.6743 34.6906 37.0889 32.8673 36.2961H26.7635C25.733 37.0889 25.0195 38.6743 25.0195 40.2597Z" fill="#777777"/>
<path d="M32.6599 40.0217C32.6599 42.3998 30.7574 44.6194 28.3793 44.6194C26.0011 44.6194 24.0986 42.3998 24.0986 40.0217C24.0986 37.6436 26.0011 35.7411 28.3793 35.7411C30.6781 35.6618 32.6599 37.6436 32.6599 40.0217Z" fill="#777777"/>
<path d="M32.6599 40.0217C32.6599 42.3998 30.7574 44.3023 28.3793 44.3023C26.0011 44.3023 24.0986 42.3998 24.0986 40.0217C24.0986 37.6436 26.0011 35.3447 28.3793 35.3447C30.6781 35.3447 32.6599 37.6436 32.6599 40.0217Z" fill="black"/>
<path d="M28.3001 44.3024C30.6643 44.3024 32.5808 42.3859 32.5808 40.0218C32.5808 37.6577 30.6643 35.7412 28.3001 35.7412C25.936 35.7412 24.0195 37.6577 24.0195 40.0218C24.0195 42.3859 25.936 44.3024 28.3001 44.3024Z" fill="black"/>
<path d="M25.2871 36.9302C26.9518 35.2655 29.7263 35.2655 31.391 36.9302C33.0556 38.5948 33.0556 41.3693 31.391 43.034" fill="black"/>
<path d="M28.2994 42.5584C26.8725 42.5584 25.7627 41.4487 25.7627 40.0218C25.7627 38.5949 26.8725 37.4851 28.2994 37.4851C29.7262 37.4851 30.836 38.5949 30.836 40.0218C30.9153 41.4487 29.7262 42.5584 28.2994 42.5584Z" fill="black"/>
<path d="M30.123 38.1985C31.1535 39.229 31.1535 40.8144 30.123 41.8449C29.0925 42.8755 27.5071 42.8755 26.4766 41.8449" fill="#B4B4B4"/>
<path d="M49.5445 6.96603C49.5445 7.83801 48.831 8.55144 47.959 8.55144H40.8247C39.9527 8.55144 39.2393 7.83801 39.2393 6.96603C39.2393 6.09405 39.9527 5.38062 40.8247 5.38062H47.959C48.831 5.38062 49.5445 6.09405 49.5445 6.96603Z" fill="#777777"/>
<path d="M40.8245 5.38062C40.0318 5.38062 39.5562 5.85624 39.3184 6.56968C39.5562 7.28311 40.2696 7.75874 41.0623 7.75874H47.9589C48.7516 7.75874 49.2272 7.28311 49.465 6.56968C49.3857 6.01478 48.7516 5.38062 47.9589 5.38062H40.8245Z" fill="black"/>
</svg>
