<svg width="50" height="50" viewBox="0 0 50 50" fill="none" xmlns="http://www.w3.org/2000/svg">
<path d="M50 25C50 38.8073 38.8073 50 25 50C11.1927 50 0 38.8073 0 25C0 11.1927 11.1927 0 25 0C38.8073 0 50 11.1927 50 25Z" fill="url(#paint0_linear_155_1012)"/>
<path d="M32.1911 42.2852H17.8089C12.2429 42.2852 7.71484 37.7571 7.71484 32.1911V17.8089C7.71484 12.2429 12.2429 7.71484 17.8089 7.71484H32.1911C37.7571 7.71484 42.2852 12.2429 42.2852 17.8089V32.1911C42.2852 37.7571 37.7571 42.2852 32.1911 42.2852ZM17.8089 10.6445C13.8584 10.6445 10.6445 13.8584 10.6445 17.8089V32.1911C10.6445 36.1416 13.8584 39.3555 17.8089 39.3555H32.1911C36.1416 39.3555 39.3555 36.1416 39.3555 32.1911V17.8089C39.3555 13.8584 36.1416 10.6445 32.1911 10.6445H17.8089Z" fill="white" fill-opacity="0.6"/>
<path d="M25 34.375C19.8307 34.375 15.625 30.1693 15.625 25C15.625 19.8307 19.8307 15.625 25 15.625C30.1693 15.625 34.375 19.8307 34.375 25C34.375 30.1693 30.1693 34.375 25 34.375ZM25 18.5547C21.4458 18.5547 18.5547 21.4458 18.5547 25C18.5547 28.5542 21.4458 31.4453 25 31.4453C28.5542 31.4453 31.4453 28.5542 31.4453 25C31.4453 21.4458 28.5542 18.5547 25 18.5547Z" fill="white" fill-opacity="0.6"/>
<path d="M35.7257 15.6151C35.7257 16.3555 35.1252 16.956 34.3848 16.956C33.6444 16.956 33.0439 16.3555 33.0439 15.6151C33.0439 14.8747 33.6444 14.2742 34.3848 14.2742C35.1252 14.2742 35.7257 14.8747 35.7257 15.6151Z" fill="white" fill-opacity="0.6"/>
<defs>
<linearGradient id="paint0_linear_155_1012" x1="25" y1="1.86265e-07" x2="25" y2="50" gradientUnits="userSpaceOnUse">
<stop stop-color="#1FFB43" stop-opacity="0.7"/>
<stop offset="1" stop-color="#1FFB43" stop-opacity="0.05"/>
</linearGradient>
</defs>
</svg>
