<svg width="50" height="50" viewBox="0 0 50 50" fill="none" xmlns="http://www.w3.org/2000/svg">
<path d="M25 50C38.8071 50 50 38.8071 50 25C50 11.1929 38.8071 0 25 0C11.1929 0 0 11.1929 0 25C0 38.8071 11.1929 50 25 50Z" fill="url(#paint0_linear_155_1018)"/>
<path fill-rule="evenodd" clip-rule="evenodd" d="M24.0561 35.9647H26.0182C26.0182 35.9647 26.611 35.8996 26.9136 35.5734C27.1921 35.274 27.1832 34.7115 27.1832 34.7115C27.1832 34.7115 27.1448 32.0787 28.3668 31.6909C29.5714 31.309 31.1183 34.2356 32.7578 35.3609C33.9976 36.2125 34.9397 36.0258 34.9397 36.0258L39.3235 35.9647C39.3235 35.9647 41.6168 35.8234 40.5295 34.0203C40.4403 33.8728 39.8962 32.6865 37.27 30.2488C34.5212 27.6975 34.8893 28.1102 38.2005 23.6969C40.2171 21.0092 41.0232 19.3683 40.7715 18.6655C40.5312 17.9962 39.0481 18.1731 39.0481 18.1731L34.1121 18.2038C34.1121 18.2038 33.7462 18.1539 33.4748 18.3161C33.2097 18.4752 33.039 18.846 33.039 18.846C33.039 18.846 32.2578 20.9259 31.2159 22.6946C29.0179 26.4269 28.1391 26.6239 27.7799 26.3922C26.9443 25.8521 27.1529 24.2223 27.1529 23.0645C27.1529 19.4476 27.7015 17.9396 26.0847 17.5492C25.5481 17.4195 25.1532 17.3339 23.7811 17.3201C22.0199 17.3018 20.5292 17.3255 19.6851 17.739C19.1236 18.014 18.6904 18.6268 18.9543 18.662C19.2805 18.7056 20.0194 18.8612 20.4111 19.3946C20.9169 20.0827 20.8991 21.6282 20.8991 21.6282C20.8991 21.6282 21.1896 25.8859 20.2204 26.4149C19.555 26.7777 18.6423 26.037 16.6828 22.651C15.6788 20.9165 14.9207 18.9993 14.9207 18.9993C14.9207 18.9993 14.7745 18.641 14.5138 18.4494C14.1974 18.2172 13.7553 18.1432 13.7553 18.1432L9.06488 18.174C9.06488 18.174 8.36076 18.1936 8.10228 18.4997C7.87233 18.772 8.08401 19.3353 8.08401 19.3353C8.08401 19.3353 11.7562 27.9265 15.9141 32.256C19.7266 36.2254 24.0561 35.9647 24.0561 35.9647Z" fill="white" fill-opacity="0.6"/>
<defs>
<linearGradient id="paint0_linear_155_1018" x1="25" y1="7.45058e-07" x2="25" y2="50" gradientUnits="userSpaceOnUse">
<stop stop-color="#1FFB43" stop-opacity="0.7"/>
<stop offset="1" stop-color="#1FFB43" stop-opacity="0.05"/>
</linearGradient>
</defs>
</svg>
